<svg width="48" height="48" viewBox="0 0 48 48" fill="none" xmlns="http://www.w3.org/2000/svg">
<rect width="48" height="48" rx="6" fill="white"/>
<path d="M16.0966 9.02551L27.2588 20.1877M9.02552 16.0966L20.1877 27.2588" stroke="black"/>
<path d="M9.02552 16.0966C7.03105 14.1021 6.99713 10.9024 8.94976 8.94975C10.9024 6.99713 14.1021 7.03105 16.0966 9.02551M20.1877 27.2588C22.1822 29.2532 25.3819 29.2871 27.3345 27.3345C29.2872 25.3819 29.2532 22.1822 27.2588 20.1877" stroke="black"/>
<line x1="18.6911" y1="11.3038" x2="20.8125" y2="10.5967" stroke="black"/>
<line y1="-0.5" x2="2.23607" y2="-0.5" transform="matrix(-0.316228 0.948683 0.948683 0.316228 11.7782 18.8492)" stroke="black"/>
<line x1="21.5196" y1="14.1323" x2="23.6409" y2="13.4252" stroke="black"/>
<line y1="-0.5" x2="2.23607" y2="-0.5" transform="matrix(-0.316228 0.948683 0.948683 0.316228 14.6066 21.6777)" stroke="black"/>
<line x1="24.348" y1="16.9607" x2="26.4693" y2="16.2536" stroke="black"/>
<line y1="-0.5" x2="2.23607" y2="-0.5" transform="matrix(-0.316228 0.948683 0.948683 0.316228 17.435 24.5061)" stroke="black"/>
<path d="M27.8326 26.8365C27.667 28.0545 27.7389 30.8242 29.3506 32.1593C31.3653 33.8281 32.8243 30.7905 34.8464 33.5044C36.8685 36.2182 36.3644 38.8272 37.4169 39.8796" stroke="black" stroke-width="0.5"/>
<path d="M11.6742 24.9182L17.6033 30.8473M7.91824 28.6742L13.8473 34.6033" stroke="black"/>
<path d="M7.91823 28.6742C6.85882 27.6148 6.8408 25.9152 7.87799 24.878C8.91518 23.8408 10.6148 23.8588 11.6742 24.9182M13.8473 34.6033C14.9067 35.6627 16.6064 35.6807 17.6435 34.6436C18.6807 33.6064 18.6627 31.9067 17.6033 30.8473" stroke="black"/>
<path d="M17.9081 34.379C17.8201 35.026 17.8583 36.4972 18.7144 37.2063C19.7846 38.0928 20.5596 36.4793 21.6336 37.9208C22.7077 39.3624 22.44 40.7482 22.999 41.3072" stroke="black" stroke-width="0.5"/>
<path d="M33.6742 16.9182L39.6033 22.8473M29.9182 20.6742L35.8473 26.6033" stroke="black"/>
<path d="M29.9182 20.6742C28.8588 19.6148 28.8408 17.9152 29.878 16.878C30.9152 15.8408 32.6148 15.8588 33.6742 16.9182M35.8473 26.6033C36.9067 27.6627 38.6064 27.6807 39.6435 26.6436C40.6807 25.6064 40.6627 23.9067 39.6033 22.8473" stroke="black"/>
<path d="M39.9081 26.379C39.8201 27.026 39.8583 28.4972 40.7144 29.2063C41.7846 30.0928 42.5596 28.4793 43.6336 29.9208C44.7077 31.3624 44.44 32.7482 44.999 33.3072" stroke="black" stroke-width="0.5"/>
<line x1="31" y1="9.5" x2="44" y2="9.5" stroke="black"/>
<line x1="37.5" y1="16" x2="37.5" y2="3" stroke="black"/>
</svg>
