<svg width="48" height="48" viewBox="0 0 48 48" fill="none" xmlns="http://www.w3.org/2000/svg">
<rect width="48" height="48" rx="6" fill="white"/>
<path d="M16.0966 9.02551L27.2588 20.1877M9.0255 16.0966L20.1877 27.2588" stroke="black"/>
<path d="M9.0255 16.0966C7.03104 14.1021 6.99712 10.9024 8.94974 8.94975C10.9024 6.99713 14.1021 7.03105 16.0966 9.02551M20.1877 27.2588C22.1821 29.2532 25.3819 29.2871 27.3345 27.3345C29.2871 25.3819 29.2532 22.1822 27.2588 20.1877" stroke="black"/>
<line x1="18.6911" y1="11.3038" x2="20.8125" y2="10.5967" stroke="black"/>
<line y1="-0.5" x2="2.23607" y2="-0.5" transform="matrix(-0.316228 0.948683 0.948683 0.316228 11.7782 18.8492)" stroke="black"/>
<line x1="21.5196" y1="14.1323" x2="23.6409" y2="13.4252" stroke="black"/>
<line y1="-0.5" x2="2.23607" y2="-0.5" transform="matrix(-0.316228 0.948683 0.948683 0.316228 14.6066 21.6777)" stroke="black"/>
<line x1="24.348" y1="16.9607" x2="26.4693" y2="16.2536" stroke="black"/>
<line y1="-0.5" x2="2.23607" y2="-0.5" transform="matrix(-0.316228 0.948683 0.948683 0.316228 17.435 24.5061)" stroke="black"/>
<path d="M27.8326 26.8365C27.667 28.0545 27.7388 30.8242 29.3506 32.1593C31.3653 33.8281 32.8243 30.7905 34.8464 33.5044C36.8685 36.2182 36.3644 38.8272 37.4168 39.8796" stroke="black" stroke-width="0.5"/>
</svg>
