<svg width="48" height="48" viewBox="0 0 48 48" fill="none" xmlns="http://www.w3.org/2000/svg">
<rect width="48" height="48" rx="6" fill="white"/>
<path d="M21.3324 11.145V19.0809C21.3324 19.4913 21.2763 19.8976 21.1673 20.2768C21.0584 20.6559 20.8987 21.0004 20.6974 21.2906L16.7555 26.9724M21.3324 11.145C21.0905 11.1769 20.8496 11.2144 20.6097 11.2589M21.3324 11.145C22.7746 10.9517 24.2261 10.9517 25.6683 11.145M16.7555 26.9724L17.4974 26.7044C19.5141 25.986 21.6424 26.3273 23.5003 27.6668C25.3582 29.0064 27.4865 29.3476 29.5032 28.6293L31.016 28.0835M16.7555 26.9724L14.6338 30.0321C13.4457 31.7418 14.0065 34.6389 15.6619 35.0459C18.2095 35.6736 20.8284 36 23.5003 36C26.1272 36.0013 28.7493 35.6821 31.3388 35.0459C32.9932 34.6389 33.554 31.7418 32.3669 30.0307L31.016 28.0835M25.6683 11.145V19.0809C25.6683 19.9101 25.8967 20.7059 26.3033 21.2906L31.016 28.0835M25.6683 11.145C25.9102 11.1769 26.1511 11.2144 26.391 11.2589" stroke="black" stroke-width="1.5" stroke-linecap="round" stroke-linejoin="round"/>
</svg>
