<svg width="48" height="48" viewBox="0 0 48 48" fill="none" xmlns="http://www.w3.org/2000/svg">
<rect width="48" height="48" rx="6" fill="white"/>
<path d="M33.8022 17.5652C33.721 17.4844 33.63 17.4104 33.5299 17.3447L33.4273 17.3237C33.3736 17.3007 33.3308 17.2629 33.3028 17.2173C33.1425 17.1429 32.9747 17.0949 32.804 17.0709C32.6566 17.0507 32.5531 16.9161 32.5745 16.77C32.5944 16.624 32.7323 16.5221 32.8797 16.5422C33.0485 16.5667 33.2177 16.6089 33.38 16.6716C33.4063 16.5549 33.4213 16.4359 33.4213 16.3159C33.4208 16.0532 33.3581 15.7882 33.2246 15.5388C33.0723 15.2537 32.8488 15.0312 32.5874 14.8794C32.3584 14.7462 32.0995 14.6668 31.8336 14.6482C31.8143 14.8867 31.7565 15.1244 31.6559 15.3546C31.5962 15.4898 31.4374 15.5521 31.2995 15.4937C31.1621 15.4359 31.0984 15.2792 31.1576 15.1439C31.2542 14.9221 31.2995 14.6937 31.3005 14.4674L31.297 14.3709C31.2786 14.0573 31.1731 13.7546 30.9933 13.4964C30.8136 13.2386 30.5617 13.0275 30.2481 12.8938C30.0231 12.7992 29.7901 12.7546 29.5605 12.7546C29.1209 12.7546 28.6953 12.9212 28.3737 13.2151C28.4339 13.4165 28.4683 13.6286 28.4683 13.8491C28.4683 13.9961 28.3458 14.1156 28.1965 14.1156C28.0471 14.1156 27.9251 13.9961 27.9251 13.8491C27.9251 13.6331 27.8848 13.4283 27.8111 13.2377C27.6862 12.9168 27.4656 12.6405 27.1824 12.4455C26.9001 12.2506 26.5581 12.1364 26.1857 12.1364C25.8626 12.1364 25.5614 12.2231 25.3025 12.373C25.0954 12.4935 24.9167 12.6562 24.7764 12.8472C25.0507 13.2171 25.2129 13.6742 25.2129 14.1671C25.2129 14.3141 25.091 14.4331 24.9411 14.4331C24.7917 14.4331 24.6698 14.3141 24.6698 14.1671C24.6698 13.7341 24.508 13.3401 24.2387 13.0388C23.9191 12.6797 23.4526 12.4549 22.9298 12.4549C22.5669 12.4549 22.2329 12.5631 21.9536 12.7493C21.6753 12.9355 21.4537 13.1991 21.3228 13.5087C21.2382 13.711 21.1899 13.9339 21.1899 14.1671C21.1899 14.3141 21.0689 14.4331 20.919 14.4331C20.7692 14.4331 20.6482 14.3141 20.6482 14.1671C20.6482 13.9506 20.6801 13.7419 20.7378 13.5429C20.5337 13.4616 20.3127 13.4166 20.0857 13.4166C19.9568 13.4166 19.8274 13.4312 19.6959 13.4602C19.3096 13.5479 18.9865 13.7527 18.75 14.0299C18.5797 14.2299 18.4582 14.4674 18.395 14.7227C18.9551 14.7324 19.5146 14.9456 19.9468 15.362C20.0534 15.4654 20.0554 15.6339 19.9508 15.7387C19.8458 15.8446 19.6745 15.8456 19.5675 15.7431C19.2279 15.4174 18.7904 15.2542 18.3502 15.2537C18.2716 15.2537 18.1929 15.2591 18.1142 15.2689H18.1128C17.7439 15.3193 17.3884 15.4849 17.1061 15.7681C16.7745 16.1012 16.6102 16.5314 16.6098 16.9655C16.6098 17.2129 16.6645 17.4622 16.774 17.6916C16.8591 17.8723 16.9787 18.0409 17.133 18.1888C17.3073 18.3574 17.5084 18.4822 17.723 18.5636C17.8618 18.617 17.9321 18.7713 17.8773 18.9084C17.8231 19.0466 17.6667 19.1152 17.5269 19.0613C17.2466 18.9545 16.9818 18.7909 16.7527 18.5699C16.6527 18.4729 16.5635 18.3696 16.4844 18.2599C16.2798 18.5484 16.1688 18.8937 16.1688 19.2456C16.1688 19.518 16.235 19.7928 16.3749 20.051C16.5322 20.3401 16.7597 20.5654 17.0276 20.7192C17.2391 20.8412 17.4756 20.9182 17.7196 20.9451L17.7191 20.9289C17.7191 20.7878 17.7325 20.6497 17.7569 20.5154C17.7848 20.3704 17.9267 20.2758 18.0731 20.3018C18.2204 20.3287 18.3175 20.4679 18.2911 20.6129C18.2717 20.7152 18.2613 20.8216 18.2613 20.9289L18.2657 21.0529L18.2801 21.1778V21.1792L18.2806 21.1817C18.4051 22.0185 19.1399 22.6441 20.0002 22.6441L20.1252 22.6392C20.5065 22.6122 20.8495 22.4672 21.1213 22.2414C21.312 22.0831 21.4683 21.8847 21.5754 21.6612C21.6386 21.5275 21.8013 21.4707 21.9363 21.5339C22.0717 21.5966 22.1295 21.7553 22.0657 21.8886C21.9498 22.1292 21.7914 22.3462 21.6013 22.5309C21.7078 22.8533 21.9079 23.1301 22.1693 23.3358C22.4681 23.5715 22.8449 23.7106 23.2521 23.7106L23.3776 23.7057C23.6355 23.6876 23.8744 23.6146 24.0861 23.5009C24.0532 23.3476 24.0343 23.1909 24.0343 23.0321C24.0343 22.7048 24.1085 22.3712 24.2618 22.0576C24.327 21.9249 24.4888 21.8695 24.6232 21.9337C24.7581 21.9969 24.8154 22.1566 24.7502 22.2894C24.6322 22.5299 24.5769 22.7827 24.5769 23.0321C24.5769 23.2065 24.6043 23.3804 24.6571 23.5455C24.796 23.9811 25.1102 24.3617 25.5617 24.5753C25.8056 24.6914 26.0625 24.7458 26.3154 24.7458C26.7172 24.7458 27.11 24.6076 27.4216 24.3573L27.4226 24.3568C27.6118 24.2034 27.7702 24.0094 27.8841 23.7777L27.8846 23.7767C27.9907 23.5602 28.0464 23.3334 28.0558 23.107C28.0628 22.96 28.1888 22.8454 28.3391 22.8523C28.4885 22.8586 28.6039 22.983 28.5975 23.13C28.5845 23.4269 28.5113 23.7267 28.3724 24.0094C28.2609 24.2382 28.1141 24.4391 27.9418 24.611C28.2614 25.0627 28.7931 25.3474 29.3682 25.3469C29.4747 25.3469 29.5832 25.3371 29.6923 25.3165C30.1109 25.2391 30.4639 25.0211 30.7148 24.7212C30.9653 24.4209 31.1111 24.0392 31.1111 23.6365L31.1106 23.6003V23.5983C31.1087 23.5077 31.0992 23.4127 31.0813 23.3171C31.038 23.0902 30.9498 22.8844 30.8289 22.7027C30.6537 22.5508 30.459 22.3524 30.2753 22.1319C30.0797 21.8968 29.8995 21.6396 29.7785 21.3804C29.6989 21.207 29.6421 21.0316 29.6411 20.8469C29.6411 20.7651 29.6525 20.6804 29.6839 20.5991C29.7142 20.5162 29.764 20.4379 29.8307 20.3732C29.9363 20.2698 30.1075 20.2698 30.2136 20.3732C30.3191 20.478 30.3191 20.6475 30.2136 20.7509L30.1931 20.7828L30.1827 20.847C30.1817 20.9141 30.2101 21.0278 30.2713 21.1586C30.332 21.2889 30.4221 21.4354 30.5282 21.5799C30.7383 21.8694 31.0106 22.1536 31.2157 22.327L31.2436 22.3506L31.264 22.3804C31.4318 22.6264 31.5548 22.9096 31.614 23.2187L31.6334 23.3514L31.7146 23.3549C32.0581 23.3544 32.404 23.2544 32.7082 23.0442C32.9502 22.8767 33.1344 22.6616 33.2589 22.4201C33.3838 22.1781 33.449 21.9106 33.449 21.6411C33.449 21.3888 33.3912 21.1355 33.2758 20.8999C33.1687 20.9337 33.0602 20.9606 32.9502 20.9792C32.8028 21.0052 32.6629 20.9067 32.6365 20.7617C32.6116 20.6162 32.7112 20.4791 32.8586 20.4536C33.3385 20.3723 33.7781 20.0969 34.0499 19.655C34.2221 19.3772 34.3033 19.0715 34.3033 18.7692C34.3033 18.3239 34.1285 17.8884 33.803 17.5655L33.8022 17.5652ZM21.3826 15.5301C21.6415 15.2287 21.985 15.0146 22.3544 14.8745C22.7253 14.7344 23.1225 14.6672 23.5039 14.6672C23.8748 14.6677 24.2312 14.7295 24.5339 14.8677C24.6693 14.9284 24.7286 15.0876 24.6658 15.2214C24.6036 15.3547 24.4428 15.4134 24.3059 15.3517C24.0969 15.2552 23.8105 15.1999 23.5039 15.1999C23.1883 15.1999 22.8518 15.2571 22.5495 15.3728C22.2474 15.4869 21.982 15.6574 21.7953 15.874C21.6997 15.9867 21.528 16.0014 21.4135 15.9054C21.2995 15.8103 21.2851 15.6422 21.3826 15.5301ZM27.5518 21.8372C27.2367 21.8372 26.9509 21.802 26.6901 21.7427C26.697 21.8162 26.702 21.898 26.702 21.9847C26.702 22.1587 26.6826 22.3575 26.6273 22.5662C26.5715 22.7744 26.4775 22.9934 26.3291 23.2036C26.244 23.3251 26.0752 23.355 25.9523 23.2712C25.8288 23.1874 25.7989 23.0218 25.883 22.8998C25.9925 22.7445 26.0607 22.5857 26.1026 22.4295C26.1444 22.2732 26.1599 22.1213 26.1599 21.9847C26.1604 21.7961 26.131 21.6407 26.1101 21.5521C25.9777 21.4932 25.8557 21.4271 25.7417 21.3531C25.2877 21.0641 24.984 20.6824 24.7933 20.3194C24.6654 20.0759 24.5877 19.8407 24.5459 19.6364C24.522 19.5198 24.5101 19.4141 24.5101 19.3179C24.5101 19.17 24.6315 19.0504 24.7814 19.0504C24.9312 19.0504 25.0527 19.17 25.0527 19.3179C25.0522 19.3953 25.0691 19.5252 25.1119 19.6727C25.1548 19.8206 25.223 19.9887 25.3215 20.1577C25.5192 20.4977 25.8333 20.8382 26.3182 21.0592C26.6423 21.2071 27.0455 21.3031 27.5518 21.3031C27.7016 21.3031 27.8231 21.4227 27.8231 21.5701C27.8231 21.7177 27.7017 21.8372 27.5518 21.8372ZM29.4606 19.8893C29.4048 20.0256 29.247 20.0922 29.1076 20.0378C28.9687 19.9829 28.902 19.8286 28.9567 19.6919L28.9583 19.6874L28.9663 19.6639L28.9941 19.5679C29.0146 19.4837 29.0355 19.3646 29.0355 19.2338L29.035 19.2152C28.6626 19.3396 28.3171 19.3954 27.999 19.3954C27.5181 19.3964 27.1019 19.2666 26.7633 19.0697C26.4243 18.8728 26.1605 18.6121 25.9633 18.3471C25.7393 18.0467 25.4456 17.7773 25.109 17.5867C24.7715 17.3956 24.3941 17.282 23.9934 17.281C23.6424 17.282 23.2691 17.3682 22.8792 17.5789C22.5093 17.7787 22.2714 18.0447 22.1176 18.3367C21.9647 18.6292 21.9 18.9486 21.9005 19.2397C21.8995 19.5091 21.9572 19.7531 22.0324 19.9069C22.0966 20.0402 22.0384 20.1989 21.9035 20.2621C21.7686 20.3254 21.6067 20.268 21.5425 20.1352C21.4245 19.8892 21.3589 19.5796 21.3578 19.2397C21.3583 18.9016 21.4266 18.5322 21.5944 18.179C21.2579 18.254 20.9452 18.2873 20.6604 18.2873C20.5066 18.2873 20.3617 18.2775 20.2238 18.2599L20.1735 18.3598L20.173 18.3607L20.169 18.3647L20.1546 18.3829L20.0968 18.4602C20.0475 18.5299 19.9793 18.6312 19.9051 18.7606C19.7572 19.0168 19.588 19.3784 19.5058 19.7844C19.4765 19.929 19.3341 20.0236 19.1872 19.9941C19.0403 19.9652 18.9447 19.8251 18.9751 19.6796C19.0727 19.198 19.2654 18.7884 19.4332 18.4969C19.5207 18.3461 19.6009 18.2266 19.6596 18.1452C19.4386 18.0801 19.2474 18.0002 19.0911 17.9188C18.7342 17.7321 18.5485 17.545 18.5326 17.5298C18.429 17.4235 18.432 17.2549 18.5395 17.1526C18.6475 17.0507 18.8183 17.0536 18.9223 17.1584L18.9254 17.1614L18.9413 17.1766L19.0189 17.2407C19.0896 17.2956 19.1987 17.3711 19.3445 17.4474C19.6372 17.5993 20.0744 17.7532 20.6603 17.7542C21.072 17.7542 21.5574 17.6768 22.1214 17.4632C22.2643 17.3324 22.4291 17.2129 22.6183 17.1109C23.0823 16.8606 23.5497 16.7479 23.9933 16.7479C24.5001 16.7479 24.9715 16.893 25.3798 17.1242C25.788 17.3564 26.134 17.6744 26.4003 18.032C26.5621 18.248 26.7747 18.4572 27.0381 18.6096C27.3029 18.7624 27.616 18.8619 27.9989 18.8624C28.2612 18.8624 28.5569 18.8144 28.8915 18.6987C28.8099 18.5699 28.6884 18.4454 28.4883 18.3327C28.3578 18.2597 28.3115 18.0971 28.3852 17.9692C28.4594 17.8404 28.6242 17.7962 28.7546 17.8678C29.0752 18.0457 29.2898 18.2813 29.4142 18.5277C29.5401 18.7732 29.5775 19.0221 29.5775 19.2337C29.576 19.6032 29.468 19.8703 29.4606 19.8893ZM29.359 16.6211C28.7258 16.6211 28.1717 16.4531 27.7236 16.1988C27.6604 16.2851 27.5758 16.3933 27.4667 16.5109C27.2213 16.7759 26.8608 17.0871 26.3785 17.2575C26.2366 17.3065 26.0823 17.235 26.032 17.0959C25.9817 16.9567 26.0558 16.8044 26.1957 16.7554C26.5517 16.6304 26.8494 16.385 27.0556 16.1631C27.1511 16.0616 27.2253 15.9656 27.2791 15.8921C27.0117 15.6697 26.8007 15.4164 26.6558 15.1558C26.5184 14.9059 26.4387 14.6482 26.4378 14.3979C26.4378 14.2509 26.5593 14.1314 26.7091 14.1314C26.8585 14.1314 26.9799 14.2509 26.9799 14.3979C26.9789 14.5326 27.0267 14.7124 27.1322 14.9011C27.2362 15.0901 27.3946 15.2871 27.6017 15.4635C28.0159 15.8167 28.6138 16.0871 29.3591 16.0871C29.5089 16.0871 29.6299 16.2072 29.6299 16.3546C29.6298 16.5016 29.5088 16.6211 29.359 16.6211ZM31.4957 20.3773C31.4006 20.49 31.2293 20.5066 31.1139 20.4121C30.9984 20.3185 30.9825 20.15 31.077 20.0368C31.3727 19.6836 31.4818 19.3279 31.4827 18.9874C31.4838 18.6773 31.3872 18.3779 31.2358 18.1257C31.0864 17.8738 30.8799 17.672 30.6812 17.5598C30.5478 17.4844 30.4224 17.4506 30.3228 17.4506C30.1729 17.4506 30.052 17.3316 30.052 17.1841C30.052 17.0366 30.173 16.9171 30.3228 16.9171C30.4875 16.9171 30.6489 16.9567 30.8022 17.0234C30.955 17.0891 31.0995 17.1826 31.2338 17.2968C31.5022 17.5251 31.7302 17.8357 31.8736 18.1997C31.9682 18.4427 32.0259 18.7092 32.0259 18.9875C32.0264 19.445 31.8676 19.9349 31.4957 20.3773Z" fill="black"/>
<path d="M18.6943 33.7413L18.7128 33.7574C18.7122 33.7569 18.7122 33.7569 18.7117 33.7564L18.6943 33.7413Z" fill="black"/>
<path d="M34.9682 12.1609C32.9514 9.84013 29.9181 8.25969 26.0314 8.02888C25.7153 8.00975 25.4007 8 25.089 8C21.8202 8 18.8132 9.0445 16.6088 10.9621C14.4029 12.8747 13.0294 15.6751 13.0343 19.0291C13.0343 19.105 13.0348 19.1809 13.0363 19.2574L13.0329 19.662L10.2271 24.5381C10.0762 24.8012 10 25.0947 10 25.3882C10 25.6331 10.0528 25.8791 10.1598 26.1083C10.3863 26.5948 10.8319 26.9446 11.3596 27.0651L11.3586 27.0695L12.649 27.4193L13.1588 32.2582L13.1628 32.2577C13.1986 32.9627 13.5182 33.6246 14.0609 34.0891C14.5434 34.5026 15.1591 34.7269 15.7924 34.7269C15.8566 34.7269 15.9198 34.7211 15.9836 34.7167L17.4457 34.8308L17.5189 34.823L17.5423 34.822C17.5985 34.822 17.6509 34.8416 17.6912 34.8774L17.6936 34.8799C17.74 34.921 17.7673 34.9812 17.7673 35.043V40H31.4196V39.2475C31.4196 39.2475 31.4196 37.209 31.4196 36.3958C31.418 36.0684 31.4843 35.4213 31.6147 34.7971C31.6794 34.4841 31.7595 34.172 31.8502 33.9021C31.9398 33.6327 32.0434 33.4034 32.13 33.2696C33.0381 31.8292 34.322 30.6476 35.4978 28.9765C36.6723 27.3069 37.6734 25.1409 37.9477 21.8546C37.9825 21.4426 38 21.0305 38 20.6205C38 17.5049 36.9884 14.4796 34.9682 12.1609ZM36.4234 21.729C36.158 24.7837 35.2898 26.6115 34.2383 28.1229C33.1884 29.6329 31.89 30.8199 30.8331 32.4715C30.6489 32.7635 30.514 33.0869 30.398 33.4307C30.2257 33.9457 30.1028 34.5071 30.0186 35.0299C29.935 35.5541 29.8907 36.0293 29.8902 36.3958C29.8902 36.918 29.8902 37.7078 29.8902 38.495H19.2967V35.0431C19.2967 34.5526 19.0846 34.0857 18.7131 33.7581C18.389 33.4714 17.9709 33.3166 17.5423 33.3166C17.5109 33.3166 17.4805 33.32 17.4497 33.322L15.989 33.2074L15.9173 33.2152L15.7924 33.2221C15.5266 33.2221 15.2677 33.1275 15.065 32.9541C14.8311 32.7537 14.6926 32.4656 14.6836 32.1594L14.6832 32.1311L14.0629 26.2423L11.738 25.6112L11.7101 25.6059C11.6394 25.5921 11.5802 25.5461 11.5498 25.4814L11.5293 25.3883L11.5582 25.2796L14.5592 20.0644L14.5656 19.2496V19.2388C14.5642 19.1683 14.5637 19.0987 14.5637 19.0292C14.5687 16.076 15.7351 13.7381 17.6219 12.0895C19.5107 10.4448 22.1483 9.50513 25.089 9.50513C25.3693 9.50513 25.6521 9.51394 25.9369 9.53112C29.4581 9.74912 32.0503 11.1317 33.8072 13.1408C35.5611 15.1514 36.4707 17.8219 36.4707 20.6204C36.4707 20.9883 36.4552 21.3581 36.4234 21.729Z" fill="black"/>
<line x1="37.9548" y1="3.14337" x2="29.2048" y2="15.6434" stroke="black" stroke-width="0.5"/>
<line x1="39.0606" y1="13.2425" x2="29.0606" y2="15.7425" stroke="black" stroke-width="0.5"/>
<line x1="39.2048" y1="13.1434" x2="30.4548" y2="25.6434" stroke="black" stroke-width="0.5"/>
</svg>
