<svg width="343" height="329" viewBox="0 0 343 329" fill="none" xmlns="http://www.w3.org/2000/svg">
<path d="M22.2493 323L23 276" stroke="black" stroke-width="3"/>
<path d="M62 280.407L22 277.407" stroke="black" stroke-width="3"/>
<path d="M62 280.407L80 226" stroke="black" stroke-width="3"/>
<path d="M153 194L80 226" stroke="black" stroke-width="3"/>
<path d="M153 194L186 197" stroke="black" stroke-width="3"/>
<path d="M231 144L186 197" stroke="black" stroke-width="3"/>
<path d="M231 144L190 144" stroke="black" stroke-width="3"/>
<path d="M205 92L190 144" stroke="black" stroke-width="3"/>
<path d="M205 91.9999L142 193" stroke="black" stroke-width="3"/>
<path d="M115 125L142 193" stroke="black" stroke-width="3"/>
<path d="M115 125L198 34" stroke="black" stroke-width="3"/>
<path d="M300 79L198 33.9999" stroke="black" stroke-width="3"/>
<path d="M300 78.9999L249 82" stroke="black" stroke-width="3"/>
<path d="M340 226L249 82" stroke="black" stroke-width="3"/>
<path d="M340 226L236 263" stroke="black" stroke-width="3"/>
<path d="M190 314L236 263" stroke="black" stroke-width="3"/>
<path d="M190 314L142 253" stroke="black" stroke-width="3"/>
<path d="M22 323L142 253" stroke="black" stroke-width="3"/>
</svg>
